<svg width="29.041748" height="21.666656" viewBox="0 0 29.0417 21.6667" fill="none" xmlns="http://www.w3.org/2000/svg" xmlns:xlink="http://www.w3.org/1999/xlink">
	<desc>
			Created with Pixso.
	</desc>
	<defs/>
	<path id="Vector" d="M10.9609 20.8951L10.9526 20.8916L10.927 20.8776C10.7769 20.795 10.6279 20.7102 10.4802 20.6233C8.70435 19.568 7.04468 18.3283 5.52881 16.9249C2.84424 14.4201 0 10.7031 0 6.12509C0 2.70908 2.87476 9.15527e-05 6.34424 9.15527e-05C7.30884 -0.00463867 8.26196 0.20816 9.13306 0.62262C10.0039 1.03711 10.7703 1.64261 11.375 2.39407C11.9797 1.64246 12.7463 1.03687 13.6174 0.622375C14.4888 0.207886 15.4421 -0.00482178 16.4067 9.15527e-05C19.8752 9.15527e-05 22.75 2.70908 22.75 6.12509C22.75 10.7043 19.9058 14.4213 17.2212 16.9237C15.7053 18.3272 14.0457 19.5669 12.2698 20.6221C12.1221 20.7094 11.9731 20.7946 11.823 20.8776L11.7974 20.8916L11.7891 20.8962L11.7856 20.8974C11.6592 20.9644 11.5181 20.9995 11.375 20.9995C11.2319 20.9995 11.0908 20.9644 10.9644 20.8974L10.9609 20.8951Z" fill="#FFFFFF" fill-opacity="1.000000" fill-rule="nonzero"/>
	<path id="offline_bolt" d="M21.2683 19.4667L24.4583 13.2333L22.2583 13.2333L22.2583 9.20001L18.9583 15.4333L21.2683 15.4333L21.2683 19.4667ZM21.7083 21.6667C20.6938 21.6667 19.7405 21.4742 18.8484 21.0892C17.9561 20.7042 17.1799 20.1817 16.52 19.5217C15.8601 18.8617 15.3374 18.0856 14.9524 17.1933C14.5674 16.3011 14.375 15.3478 14.375 14.3333C14.375 13.3189 14.5674 12.3656 14.9524 11.4733C15.3374 10.5811 15.8601 9.80499 16.52 9.14499C17.1799 8.48499 17.9561 7.96249 18.8484 7.57751C19.7405 7.1925 20.6938 7 21.7083 7C22.7227 7 23.676 7.1925 24.5684 7.57751C25.4604 7.96249 26.2366 8.48499 26.8967 9.14499C27.5566 9.80499 28.0791 10.5811 28.4641 11.4733C28.8491 12.3656 29.0417 13.3189 29.0417 14.3333C29.0417 15.3478 28.8491 16.3011 28.4641 17.1933C28.0791 18.0856 27.5566 18.8617 26.8967 19.5217C26.2366 20.1817 25.4604 20.7042 24.5684 21.0892C23.676 21.4742 22.7227 21.6667 21.7083 21.6667Z" fill="#894189" fill-opacity="1.000000" fill-rule="nonzero"/>
	<path id="offline_bolt" d="M21.6416 19L24.5417 13.3333L22.5417 13.3333L22.5417 9.66663L19.5417 15.3333L21.6416 15.3333L21.6416 19ZM22.0417 21C21.1194 21 20.2527 20.825 19.4417 20.4749C18.6306 20.125 17.925 19.65 17.325 19.05C16.7251 18.45 16.25 17.7444 15.8999 16.9333C15.55 16.1222 15.375 15.2555 15.375 14.3333C15.375 13.4111 15.55 12.5444 15.8999 11.7333C16.25 10.9222 16.7251 10.2166 17.325 9.61664C17.925 9.01663 18.6306 8.54163 19.4417 8.19162C20.2527 7.84161 21.1194 7.66663 22.0417 7.66663C22.9639 7.66663 23.8306 7.84161 24.6416 8.19162C25.4529 8.54163 26.1584 9.01663 26.7583 9.61664C27.3584 10.2166 27.8333 10.9222 28.1833 11.7333C28.5334 12.5444 28.7083 13.4111 28.7083 14.3333C28.7083 15.2555 28.5334 16.1222 28.1833 16.9333C27.8333 17.7444 27.3584 18.45 26.7583 19.05C26.1584 19.65 25.4529 20.125 24.6416 20.4749C23.8306 20.825 22.9639 21 22.0417 21Z" fill="#FFFFFF" fill-opacity="1.000000" fill-rule="nonzero"/>
</svg>
